<svg xmlns="http://www.w3.org/2000/svg" viewBox="0 0 676 676" class="svg-inline--fa fa-songkick">
  <path fill="currentColor" d="m337.94037,64c103.61496,0 193.96899,57.82201 240.521,142.881c0.94696,1.731 0.45697,3.905 -1.15601,5.04201c-32.91901,23.179 -52.79498,10.81599 -116.92401,-35.291c-9.94003,-7.145 -20.19998,-14.535 -31.43799,-22.32201c-45.60803,-31.63499 -108.34799,-38.47499 -156.14001,-17.039c-56.83101,25.498 -87.46001,90.082 -68.28201,143.94699c12.41301,34.82703 44.12698,63.04202 89.32303,79.45502c14.33701,5.20599 28.659,8.99298 42.508,12.672c16.68896,4.42801 32.44696,8.612 46.72299,14.79501c18.59799,8.077 39.59201,23.66599 42.69199,43.16299c3.63403,22.871 -20.03302,47.285 -44.43298,55.728c-35.14801,12.16901 -78.34399,2.59601 -105.03403,-23.29901c-12.42899,-12.04599 -23.02597,-28.15399 -34.24796,-45.224c-21.43803,-32.612 -45.74603,-69.57599 -89.76604,-84.12698c-28.24199,-9.332 -55.924,-8.99503 -82.7459,0.92398c-2.6866,0.99301 -5.6064,-0.97198 -5.5393,-3.836c3.4697,-148.075 125.0162,-267.46899 273.92422,-267.46899l0.01501,0zm0,547.98499c-126.74004,0 -233.64503,-86.47998 -264.82383,-203.53598c-0.4294,-1.612 0.2045,-3.33002 1.5975,-4.24802c19.4313,-12.80798 37.5563,-15.52798 57.4483,-8.961c22.842,7.54202 38.355,31.147 56.326,58.492c12.62799,19.207 25.683,39.07101 43.181,56.03302c31.10297,30.15497 74.42001,46.59796 117.61597,46.59796c17.98703,0 35.95804,-2.85498 53.01404,-8.76398c49.08902,-16.99298 96.17801,-67.05701 86.75702,-126.34201c-6.09201,-38.323 -36.17203,-72.67599 -80.46704,-91.914c-18.70401,-8.12299 -37.57596,-13.12997 -55.82297,-17.95499c-13.07001,-3.466 -25.40701,-6.733 -37.07199,-10.96301c-15.57501,-5.64899 -42.89102,-18.44299 -50.81503,-40.70398c-8.55096,-24.00201 10.96301,-53.56001 34.14099,-63.95801c27.16302,-12.18401 66.42004,-7.466 93.354,11.222c10.78,7.481 20.82703,14.703 30.55304,21.696c59.25497,42.61301 111.39099,80.086 176.04297,45.078c2.349,-1.272 5.33301,-0.05099 5.93402,2.552c4.58197,19.83899 7.021,40.49399 7.021,61.70401c0,151.077 -122.914,273.98499 -274,273.98499l0.01501,-0.01501z"/>
</svg>
