<svg xmlns="http://www.w3.org/2000/svg" width="708" height="708" viewBox="0 0 708 708" class="svg-inline--fa fa-songkick">
    <path fill="currentColor"
          d="M354.015 80C457.63 80 547.984 137.822 594.536 222.881C595.483 224.612 594.993 226.786 593.38 227.923C560.461 251.102 540.585 238.739 476.456 192.632C466.516 185.487 456.256 178.097 445.018 170.31C399.41 138.675 336.67 131.835 288.878 153.271C232.047 178.769 201.418 243.353 220.596 297.218C233.009 332.045 264.723 360.26 309.919 376.673C324.256 381.879 338.578 385.666 352.427 389.345C369.116 393.773 384.874 397.957 399.15 404.14C417.748 412.217 438.742 427.806 441.842 447.303C445.476 470.174 421.809 494.588 397.409 503.031C362.261 515.2 319.065 505.627 292.375 479.732C279.946 467.686 269.349 451.578 258.127 434.508C236.689 401.896 212.381 364.932 168.361 350.381C140.119 341.049 112.437 341.386 85.6151 351.305C82.9285 352.298 80.0087 350.333 80.0758 347.469C83.5455 199.394 205.092 80 354 80H354.015ZM354.015 627.985C227.275 627.985 120.37 541.505 89.1912 424.449C88.7618 422.837 89.3957 421.119 90.7887 420.201C110.22 407.393 128.345 404.673 148.237 411.24C171.079 418.782 186.592 442.387 204.563 469.732C217.191 488.939 230.246 508.803 247.744 525.765C278.847 555.92 322.164 572.363 365.36 572.363C383.347 572.363 401.318 569.508 418.374 563.599C467.463 546.606 514.552 496.542 505.131 437.257C499.039 398.934 468.959 364.581 424.664 345.343C405.96 337.22 387.088 332.213 368.841 327.388C355.771 323.922 343.434 320.655 331.769 316.425C316.194 310.776 288.878 297.982 280.954 275.721C272.403 251.719 291.917 222.161 315.095 211.763C342.258 199.579 381.515 204.297 408.449 222.985C419.229 230.466 429.276 237.688 439.002 244.681C498.257 287.294 550.393 324.767 615.045 289.759C617.394 288.487 620.378 289.708 620.979 292.311C625.561 312.15 628 332.805 628 354.015C628 505.092 505.086 628 354 628L354.015 627.985Z"/>
</svg>
